<?xml version="1.0" encoding="utf-8"?>
<!-- Generator: Adobe Illustrator 19.0.1, SVG Export Plug-In . SVG Version: 6.00 Build 0)  -->
<svg version="1.1" id="Layer_1" xmlns="http://www.w3.org/2000/svg" xmlns:xlink="http://www.w3.org/1999/xlink" x="0px" y="0px"
	 viewBox="-375 287 40 40" style="enable-background:new -375 287 40 40;" xml:space="preserve">
<style type="text/css">
	.st0{fill:#EE4235;}
</style>
<title>adoption</title>
<path class="st0" d="M-355,289c5.4,0,9.8,4.3,9.8,9.7c0,5.4-4.3,9.8-9.7,9.8c-5.4,0-9.8-4.3-9.8-9.7c0,0,0,0,0-0.1
	C-364.7,293.4-360.4,289-355,289 M-355,287c-6.5,0-11.8,5.2-11.8,11.7c0,6.5,5.2,11.8,11.7,11.8c6.5,0,11.8-5.2,11.8-11.7
	c0,0,0,0,0-0.1C-343.3,292.3-348.5,287-355,287C-355,287-355,287-355,287L-355,287z"/>
<path class="st0" d="M-355,315c7.1,0,12.2,1.6,15.2,4.8c1.4,1.4,2.3,3.2,2.7,5.2h-35.7c0.4-1.9,1.3-3.7,2.7-5.2
	C-367.2,316.6-362.1,315-355,315 M-355,313c-21,0-20,14-20,14h40C-335,327-334,313-355,313L-355,313z"/>
</svg>
