<?xml version="1.0" encoding="utf-8"?>
<!-- Generator: Adobe Illustrator 19.0.1, SVG Export Plug-In . SVG Version: 6.00 Build 0)  -->
<svg version="1.1" id="Layer_1" xmlns="http://www.w3.org/2000/svg" xmlns:xlink="http://www.w3.org/1999/xlink" x="0px" y="0px"
	 viewBox="-659 561 80 80" style="enable-background:new -659 561 80 80;" xml:space="preserve">
<style type="text/css">
	.st0{fill:#FFFFFF;}
	.st1{fill:#FFC125;}
	.st2{display:none;}
	.st3{display:inline;}
	.st4{font-family:'MyriadPro-Regular';}
	.st5{font-size:12px;}
</style>
<g id="Layer_1_1_">
	<circle class="st0" cx="-619" cy="601" r="40"/>
	<g>
		<path class="st1" d="M-606.2,599.2v3.7c0,0.2,0,0.3-0.1,0.4c0,0.1-0.2,0.2-0.4,0.2l-3,0.5c-0.3,0.7-0.5,1.2-0.7,1.5
			c0.7,0.9,1.3,1.7,1.8,2.3c0.1,0.1,0.2,0.3,0.2,0.4c0,0.2-0.1,0.3-0.2,0.4c-0.3,0.4-0.9,1-1.6,1.8c-0.9,0.8-1.4,1.2-1.6,1.2
			s-0.3-0.1-0.4-0.2l-2.3-1.8c-0.3,0.2-0.8,0.4-1.5,0.6c-0.2,1.4-0.3,2.4-0.5,3.1c0,0.3-0.2,0.5-0.6,0.5h-3.8c-0.2,0-0.3,0-0.4-0.1
			c-0.1-0.1-0.2-0.2-0.2-0.4l-0.5-3.1c-0.7-0.2-1.2-0.4-1.5-0.6l-2.3,1.8c-0.1,0.1-0.3,0.2-0.4,0.2c-0.2,0-0.3-0.1-0.4-0.2
			c-1.4-1.3-2.4-2.3-2.8-2.8c-0.1-0.1-0.1-0.2-0.1-0.4s0-0.3,0.1-0.4c0,0,0.2-0.2,0.4-0.4c0.2-0.3,0.4-0.5,0.5-0.7s0.3-0.4,0.5-0.7
			s0.4-0.5,0.4-0.6c-0.3-0.5-0.5-1-0.7-1.6l-3-0.5c-0.2,0-0.3-0.1-0.4-0.2c-0.1-0.1-0.1-0.2-0.1-0.4V599c0-0.2,0-0.3,0.1-0.4
			c0-0.1,0.1-0.2,0.3-0.2l3.1-0.5c0.2-0.5,0.4-1.1,0.7-1.5c-0.6-0.8-1.2-1.5-1.8-2.3c-0.1-0.2-0.2-0.3-0.2-0.4
			c0-0.1,0.1-0.3,0.2-0.4c0.3-0.5,0.9-1.1,1.6-1.8c0.8-0.8,1.3-1.2,1.6-1.2c0.2,0,0.3,0.1,0.4,0.2l2.3,1.8c0.3-0.2,0.8-0.4,1.5-0.6
			c0.2-1.4,0.3-2.4,0.5-3.1c0-0.3,0.2-0.5,0.6-0.5h3.8c0.2,0,0.3,0,0.4,0.1c0.1,0.1,0.2,0.2,0.2,0.4l0.5,3.1
			c0.7,0.2,1.2,0.4,1.5,0.6l2.3-1.8c0.1-0.1,0.3-0.2,0.4-0.2c0.2,0,0.3,0.1,0.4,0.2c1.5,1.4,2.4,2.4,2.8,2.9c0.1,0,0.1,0.2,0.1,0.4
			s0,0.3-0.1,0.4c0,0.1-0.2,0.2-0.4,0.5s-0.4,0.5-0.5,0.6c-0.1,0.2-0.3,0.4-0.5,0.7s-0.4,0.4-0.4,0.6c0.3,0.5,0.5,1.1,0.7,1.6l3,0.5
			c0.2,0,0.3,0.1,0.4,0.2C-606.2,598.9-606.2,599-606.2,599.2z M-614.7,601c0-1.2-0.4-2.2-1.2-3c-0.9-0.8-1.9-1.2-3-1.2
			c-1.1,0-2.2,0.4-3,1.2c-0.8,0.9-1.2,1.9-1.2,3s0.4,2.2,1.2,3c0.9,0.8,1.9,1.2,3,1.2c1.1,0,2.2-0.4,3-1.2
			C-615.1,603.2-614.7,602.2-614.7,601z"/>
	</g>
</g>
<g id="nyt_x5F_exporter_x5F_info" class="st2">
	<text transform="matrix(1 0 0 1 -859 561.8)" class="st3 st4 st5">  &lt;nyt_export_code&gt;artboards&lt;/nyt_export_code&gt;</text>
</g>
</svg>
