<?xml version="1.0" encoding="utf-8"?>
<!-- Generator: Adobe Illustrator 19.0.1, SVG Export Plug-In . SVG Version: 6.00 Build 0)  -->
<svg version="1.1" id="Layer_1" xmlns="http://www.w3.org/2000/svg" xmlns:xlink="http://www.w3.org/1999/xlink" x="0px" y="0px"
	 viewBox="-659 561 80 80" style="enable-background:new -659 561 80 80;" xml:space="preserve">
<style type="text/css">
	.st0{fill:#FFFFFF;}
	.st1{fill:#FFC125;}
	.st2{display:none;}
</style>
<g id="Layer_1_2_">
	<circle class="st0" cx="-619" cy="601" r="40"/>
	<g>
		<path class="st1" d="M-605.1,590.8v20.4c0,0.7-0.3,1.3-0.8,1.9c-0.5,0.5-1.1,0.8-1.9,0.8h-22.5c-0.7,0-1.4-0.3-1.9-0.8
			s-0.8-1.2-0.8-1.9v-20.4c0-0.7,0.3-1.3,0.8-1.9c0.5-0.5,1.1-0.8,1.9-0.8h22.5c0.7,0,1.4,0.3,1.9,0.8
			C-605.3,589.5-605.1,590.1-605.1,590.8z M-630.2,611.7h10.2v-19.3h-10.7v18.8c0,0.1,0.1,0.2,0.2,0.4
			C-630.5,611.7-630.4,611.7-630.2,611.7z M-607.2,611.2v-18.8h-10.7v19.3h10.2c0.2,0,0.3-0.1,0.4-0.2
			C-607.3,611.4-607.2,611.3-607.2,611.2z"/>
	</g>
</g>
<g id="nyt_x5F_exporter_x5F_info" class="st2">
</g>
</svg>
