<?xml version="1.0" encoding="utf-8"?>
<!-- Generator: Adobe Illustrator 19.0.1, SVG Export Plug-In . SVG Version: 6.00 Build 0)  -->
<svg version="1.1" id="Layer_1" xmlns="http://www.w3.org/2000/svg" xmlns:xlink="http://www.w3.org/1999/xlink" x="0px" y="0px"
	 viewBox="97.8 -6.1 228.4 92.1" style="enable-background:new 97.8 -6.1 228.4 92.1;" xml:space="preserve">
<style type="text/css">
	.st0{fill:#FFFFFF;}
</style>
<g>
	<g>
		<path class="st0" d="M205.9,82.6l11.9-15.3c0.1-0.1,0.1-0.3,0.1-0.4L207.4-5.5c0-0.3-0.3-0.5-0.6-0.5h-13.7
			c-0.2,0-0.4,0.1-0.5,0.3l-32.7,66.6c-0.2,0.4-0.8,0.4-1,0l-33-66.6c-0.1-0.2-0.3-0.3-0.5-0.3h-13.8c-0.3,0-0.5,0.2-0.6,0.5
			L97.8,85.4C97.7,85.7,98,86,98.4,86h16c0.3,0,0.5-0.2,0.6-0.5l8-58.3c0.1-0.6,0.8-0.7,1.1-0.2l29.1,58.7c0.1,0.2,0.3,0.3,0.5,0.3
			H165c0.2,0,0.4-0.1,0.5-0.3l28.7-57.9c0.3-0.5,1-0.4,1.1,0.2l7.8,56.5c0.1,0.5,0.7,0.7,1,0.3L205.9,82.6z"/>
		<path class="st0" d="M303.3-6h-20.1c-0.2,0-0.3,0.1-0.5,0.2l-24.1,31.6c-0.2,0.3-0.7,0.3-0.9,0L233.5-5.8C233.4-5.9,233.2-6,233-6
			h-20.1c-0.5,0-0.7,0.6-0.5,0.9L247,39.7c0.2,0.2,0.2,0.5,0,0.7l-34.6,44.8c-0.3,0.4,0,0.9,0.5,0.9H233c0.2,0,0.3-0.1,0.5-0.2
			l24.2-31.6c0.2-0.3,0.7-0.3,0.9,0l24.2,31.6c0.1,0.1,0.3,0.2,0.5,0.2h20.1c0.5,0,0.7-0.6,0.5-0.9l-34.6-44.8
			c-0.2-0.2-0.2-0.5,0-0.7l34.6-44.8C304-5.5,303.8-6,303.3-6z"/>
	</g>
	<g>
		<path class="st0" d="M311.9,2.2v-6.7h-2.4V-6h6.6v1.5h-2.4v6.7H311.9z"/>
		<path class="st0" d="M324.4,2.2v-5.8l-2.3,5.8h-0.8L319-3.6v5.8h-1.8V-6h2.5l2,5l2-5h2.5v8.2H324.4z"/>
	</g>
</g>
</svg>
