<?xml version="1.0" encoding="utf-8"?>
<!-- Generator: Adobe Illustrator 19.0.1, SVG Export Plug-In . SVG Version: 6.00 Build 0)  -->
<svg version="1.1" id="Layer_1" xmlns="http://www.w3.org/2000/svg" xmlns:xlink="http://www.w3.org/1999/xlink" x="0px" y="0px"
	 viewBox="-659 561 80 80" style="enable-background:new -659 561 80 80;" xml:space="preserve">
<style type="text/css">
	.st0{fill:#FFFFFF;}
	.st1{fill:#FFC125;}
	.st2{display:none;}
</style>
<g id="Layer_1_3_">
	<circle class="st0" cx="-619" cy="601" r="40"/>
	<g>
		<path class="st1" d="M-609.3,602.6v5.4c0,1.3-0.5,2.5-1.5,3.4c-0.9,0.9-2.1,1.4-3.4,1.4h-13.9c-1.3,0-2.4-0.5-3.5-1.4
			c-0.9-0.9-1.4-2.1-1.4-3.4v-14c0-1.3,0.5-2.5,1.4-3.4c1-0.9,2.1-1.4,3.5-1.4h13.9c0.7,0,1.4,0.1,2,0.4c0.1,0,0.2,0.2,0.3,0.4
			c0,0.2-0.1,0.4-0.2,0.5l-0.8,0.8c-0.2,0.1-0.3,0.1-0.4,0.1h-0.2c-0.3-0.1-0.6-0.1-0.8-0.1h-13.9c-0.7,0-1.4,0.3-1.9,0.8
			s-0.8,1.1-0.8,1.9v14c0,0.7,0.3,1.4,0.8,1.9s1.2,0.8,1.9,0.8h13.9c0.8,0,1.4-0.3,1.9-0.8s0.8-1.1,0.8-1.9v-4.3
			c0-0.2,0.1-0.3,0.2-0.4l1.1-1.1c0.2-0.1,0.3-0.1,0.4-0.1h0.2C-609.5,602.2-609.3,602.4-609.3,602.6z M-605.5,594.4l-13.7,13.7
			c-0.3,0.2-0.6,0.4-0.9,0.4c-0.4,0-0.7-0.1-1-0.4l-7.1-7.2c-0.3-0.3-0.4-0.6-0.4-1c0-0.4,0.1-0.7,0.4-0.9l1.8-1.8
			c0.3-0.3,0.6-0.4,0.9-0.4c0.4,0,0.7,0.1,1,0.4l4.4,4.4l10.8-10.8c0.2-0.3,0.5-0.4,0.9-0.4c0.4,0,0.7,0.1,0.9,0.4l1.9,1.8
			c0.2,0.3,0.4,0.6,0.4,1C-605.1,593.8-605.2,594.1-605.5,594.4z"/>
	</g>
</g>
<g id="nyt_x5F_exporter_x5F_info" class="st2">
</g>
</svg>
