<?xml version="1.0" encoding="utf-8"?>
<!-- Generator: Adobe Illustrator 19.0.1, SVG Export Plug-In . SVG Version: 6.00 Build 0)  -->
<svg version="1.1" id="Layer_1" xmlns="http://www.w3.org/2000/svg" xmlns:xlink="http://www.w3.org/1999/xlink" x="0px" y="0px"
	 viewBox="-377 292.9 36.7 29.1" style="enable-background:new -377 292.9 36.7 29.1;" xml:space="preserve">
<style type="text/css">
	.st0{fill:#C9C9C9;}
</style>
<title>roi-outlines</title>
<path class="st0" d="M-369.3,319c-2.9-0.1-5.7-1.4-7.7-3.5l1.6-2.1c1.5,1.8,3.7,2.9,6,3.1v-8.2c-3.4-0.9-7-2.1-7-6.2
	c0-3.5,2.9-5.9,7-6.2v-3.1h2v3.1c2.5,0.2,4.8,1.2,6.6,3l-1.7,2c-1.3-1.4-3-2.3-4.9-2.5v7.3c3.5,1,7.1,2.3,7.1,6.6
	c0,3-1.9,6.1-7.1,6.5v3h-2L-369.3,319L-369.3,319z M-369.3,305.3v-6.8c-2.4,0.2-4.1,1.5-4.1,3.5S-371.6,304.7-369.3,305.3
	L-369.3,305.3z M-367.3,308.9v7.6c3.2-0.3,4.2-2.2,4.2-3.8C-363.1,310.6-365,309.6-367.3,308.9L-367.3,308.9z"/>
<path class="st0" d="M-349.5,319c-2.9-0.1-5.7-1.4-7.7-3.5l1.6-2.1c1.5,1.8,3.7,2.9,6,3.1v-8.2c-3.4-0.9-7-2.1-7-6.2
	c0-3.5,2.9-5.9,7-6.2v-3.1h2v3.1c2.5,0.2,4.8,1.2,6.6,3l-1.7,2c-1.3-1.4-3-2.3-4.9-2.5v7.3c3.5,1,7.1,2.3,7.1,6.6
	c0,3-1.9,6.1-7.1,6.5v3h-2L-349.5,319L-349.5,319z M-349.5,305.3v-6.8c-2.4,0.2-4.1,1.5-4.1,3.5S-351.8,304.7-349.5,305.3
	L-349.5,305.3z M-347.5,308.9v7.6c3.2-0.3,4.2-2.2,4.2-3.8C-343.2,310.6-345.1,309.6-347.5,308.9L-347.5,308.9z"/>
</svg>
