<?xml version="1.0" encoding="utf-8"?>
<!-- Generator: Adobe Illustrator 19.0.1, SVG Export Plug-In . SVG Version: 6.00 Build 0)  -->
<svg version="1.1" id="Layer_1" xmlns="http://www.w3.org/2000/svg" xmlns:xlink="http://www.w3.org/1999/xlink" x="0px" y="0px"
	 viewBox="-377 286 36.5 41" style="enable-background:new -377 286 36.5 41;" xml:space="preserve">
<style type="text/css">
	.st0{fill:#059E9A;}
</style>
<title>security</title>
<path class="st0" d="M-346.5,299.6c2.2,0,4,1.8,4,4V321c0,2.2-1.8,4-4,4H-371c-2.2,0-4-1.8-4-4v-17.4c0-2.2,1.8-4,4-4H-346.5
	 M-346.5,297.6H-371c-3.3,0-6,2.7-6,6V321c0,3.3,2.7,6,6,6h24.5c3.3,0,6-2.7,6-6v-17.4C-340.5,300.3-343.2,297.6-346.5,297.6
	L-346.5,297.6z"/>
<path class="st0" d="M-354,319.2l-2.1-5.5c1.9-1.4,2.3-4.1,0.9-6c-1.4-1.9-4.1-2.3-6-0.9c-1.9,1.4-2.3,4.1-0.9,6
	c0.3,0.4,0.7,0.8,1.2,1.1l-2,5.3H-354L-354,319.2z"/>
<path class="st0" d="M-346,298.9l-2-0.2l1,0.1l-1-0.1c0,0,0.4-4.6-2.4-7.7c-1.8-2-4.5-3-8.1-3s-6.3,1-8.1,3
	c-2.8,3.1-2.4,7.7-2.4,7.7l-2,0.2c0-0.2-0.5-5.5,2.9-9.3c2.2-2.4,5.4-3.6,9.6-3.6c4.2,0,7.4,1.2,9.6,3.6
	C-345.5,293.4-346,298.7-346,298.9z"/>
</svg>
